<?xml version="1.0" encoding="UTF-8"?>
<!-- Generator: Adobe Illustrator 20.0.0, SVG Export Plug-In . SVG Version: 6.00 Build 0)  -->
<svg version="1.1" id="Layer_1" xmlns="http://www.w3.org/2000/svg" xmlns:xlink="http://www.w3.org/1999/xlink" x="0px" y="0px" viewBox="0 0 242 40" style="" xml:space="preserve">
<style type="text/css">
	.st0{fill:#FFFFFF;}
</style>
<g>
	<g>
		<path class="st0" d="M28.2,34.5v-9.5h5.4v0.8h-4.5v3.4h4.4v0.8h-4.4v4.6H28.2z"/>
		<path class="st0" d="M35.2,31.3c0,1.4,0.7,2.6,2.3,2.6c0.9,0,1.7-0.7,1.9-1.6h0.8c-0.4,1.6-1.4,2.3-3,2.3c-2,0-2.9-1.7-2.9-3.5    c0-1.8,1-3.5,3-3.5c2.2,0,3,1.6,3,3.7H35.2z M39.5,30.6c-0.1-1.3-0.8-2.2-2.2-2.2c-1.3,0-2,1.1-2.1,2.2H39.5z"/>
		<path class="st0" d="M42.8,25.9h-0.9v-1h0.9V25.9z M42.7,27.9v6.6h-0.8v-6.6H42.7z"/>
		<path class="st0" d="M45.5,34.5h-0.8v-5.1c0-0.5,0-1-0.1-1.5h0.8l0,1l0,0c0.5-0.8,1.2-1.2,2.1-1.2c2.2,0,2.3,1.9,2.3,2.7v4.1h-0.8    v-4.3c0-1.1-0.7-1.8-1.7-1.8c-1.3,0-1.9,1.1-1.9,2.3V34.5z"/>
		<path class="st0" d="M52.6,34.5h-0.8c0-0.4,0.1-1,0.1-1.5v-8h0.8v3.9l0,0c0.5-0.8,1.4-1.2,2.3-1.2c2,0,2.7,1.8,2.7,3.5    c0,1.7-0.8,3.5-2.7,3.5c-1,0-1.8-0.4-2.3-1.2l0,0.1L52.6,34.5z M52.6,31c0,1.5,0.5,2.9,2.3,2.9c1.5,0,1.9-1.6,1.9-2.9    c0-1.3-0.5-2.7-2-2.7C53.2,28.4,52.6,29.7,52.6,31z"/>
		<path class="st0" d="M59.6,31.3c0,1.4,0.7,2.6,2.3,2.6c0.9,0,1.7-0.7,1.9-1.6h0.8c-0.4,1.6-1.4,2.3-3,2.3c-2,0-2.9-1.7-2.9-3.5    c0-1.8,1-3.5,3-3.5c2.2,0,3,1.6,3,3.7H59.6z M63.9,30.6c-0.1-1.3-0.8-2.2-2.2-2.2c-1.3,0-2,1.1-2.1,2.2H63.9z"/>
		<path class="st0" d="M67.2,34.5h-0.8v-5.1c0-0.5,0-1-0.1-1.5h0.8l0,1h0c0.2-0.7,0.8-1.1,1.5-1.2c0.3,0,0.5,0,0.8,0v0.8    c-0.2,0-0.3-0.1-0.5-0.1c-1.2,0-1.8,0.8-1.8,2.1V34.5z"/>
		<path class="st0" d="M75.2,27.9h0.8c0,0.4-0.1,1-0.1,1.5v4c0,1.3,0.1,2.7-1.4,3.4C74.1,37,73.7,37,73.1,37c-1.2,0-2.6-0.4-2.6-1.8    h0.9c0.1,0.8,1,1.1,1.9,1.1c1,0,2-0.7,2-1.8v-1.2h0c-0.4,0.8-1.3,1.2-2.2,1.2c-2,0-2.9-1.5-2.9-3.3c0-1.8,0.8-3.5,2.8-3.5    c1,0,1.7,0.5,2.2,1.2l0-0.1L75.2,27.9z M73.1,28.4c-1.4,0-2,1.5-2,2.7c0,1.2,0.6,2.7,2.1,2.7c1.5,0,2.1-1.4,2.1-2.7    C75.2,29.8,74.5,28.4,73.1,28.4z"/>
		<path class="st0" d="M83.9,34.7c-1.5,0-2.8-1.1-2.8-2.7H82c0,1.5,1.1,1.9,2.4,1.9c1.1,0,2.3-0.6,2.3-1.8c0-1-0.7-1.4-1.5-1.7    c-1.5-0.5-3.9-1-3.9-3.1c0-1.7,1.5-2.6,3-2.6c1.3,0,2.9,0.4,3.1,2.3h-0.9c0-1.2-1.1-1.5-2.1-1.5c-1,0-2.2,0.5-2.2,1.7    c0,2.7,5.4,1.5,5.4,4.8C87.6,34,85.8,34.7,83.9,34.7z"/>
		<path class="st0" d="M93.5,29.9c-0.1-1-0.7-1.5-1.8-1.5c-1.2,0-2,1.3-2,2.8c0,1.5,0.8,2.8,2,2.8c1,0,1.7-0.6,1.8-1.5h0.9    c-0.2,1.5-1.1,2.3-2.6,2.3c-2,0-2.9-1.7-2.9-3.5c0-1.8,1-3.5,3-3.5c1.4,0,2.5,0.8,2.5,2.2H93.5z"/>
		<path class="st0" d="M95.9,28.9L95.9,28.9c0.5-0.8,1.2-1.2,2.1-1.2c2.2,0,2.3,1.9,2.3,2.7v4.1h-0.8v-4.3c0-1.1-0.7-1.8-1.7-1.8    c-1.3,0-1.9,1.1-1.9,2.3v3.8h-0.8v-9.5h0.8V28.9z"/>
		<path class="st0" d="M108,31.2c0,1.7-1,3.5-3.1,3.5c-2.1,0-3.1-1.8-3.1-3.5s1-3.5,3.1-3.5C107.1,27.7,108,29.4,108,31.2z     M105,28.4c-1.6,0-2.2,1.6-2.2,2.8c0,1.2,0.6,2.8,2.2,2.8c1.6,0,2.2-1.6,2.2-2.8C107.2,29.9,106.6,28.4,105,28.4z"/>
		<path class="st0" d="M115.3,31.2c0,1.7-1,3.5-3.1,3.5s-3.1-1.8-3.1-3.5s1-3.5,3.1-3.5S115.3,29.4,115.3,31.2z M112.2,28.4    c-1.6,0-2.2,1.6-2.2,2.8c0,1.2,0.6,2.8,2.2,2.8c1.6,0,2.2-1.6,2.2-2.8C114.4,29.9,113.8,28.4,112.2,28.4z"/>
		<path class="st0" d="M117.6,34.5h-0.8v-9.5h0.8V34.5z"/>
		<path class="st0" d="M128.8,31.2c0,1.7-1,3.5-3.1,3.5c-2.1,0-3.1-1.8-3.1-3.5s1-3.5,3.1-3.5C127.8,27.7,128.8,29.4,128.8,31.2z     M125.7,28.4c-1.6,0-2.2,1.6-2.2,2.8c0,1.2,0.6,2.8,2.2,2.8c1.6,0,2.2-1.6,2.2-2.8C127.9,29.9,127.3,28.4,125.7,28.4z"/>
		<path class="st0" d="M130.9,34.5v-5.9h-1.3v-0.7h1.3v-1.4c0-1.1,0.5-1.7,1.6-1.7c0.3,0,0.5,0.1,0.8,0.1v0.6    c-0.2,0-0.3-0.1-0.5-0.1c-1.1,0-1.1,0.5-1.1,1.5v0.8h1.5v0.7h-1.5v5.9H130.9z"/>
		<path class="st0" d="M138.3,34.5v-9.5h1.4l3.6,8.3l3.7-8.3h1.3v9.5h-0.9v-8.8h0l-3.6,8.8h-0.9l-3.6-8.8h0v8.8H138.3z"/>
		<path class="st0" d="M150.9,31.3c0,1.4,0.7,2.6,2.3,2.6c0.9,0,1.7-0.7,1.9-1.6h0.8c-0.4,1.6-1.4,2.3-3,2.3c-2,0-2.9-1.7-2.9-3.5    c0-1.8,1-3.5,3-3.5c2.2,0,3,1.6,3,3.7H150.9z M155.2,30.6c-0.1-1.3-0.8-2.2-2.2-2.2c-1.3,0-2,1.1-2.1,2.2H155.2z"/>
		<path class="st0" d="M162.2,33.5L162.2,33.5c-0.6,0.7-1.4,1.2-2.3,1.2c-2,0-2.7-1.9-2.7-3.5c0-1.7,0.8-3.5,2.7-3.5    c0.9,0,1.8,0.4,2.3,1.2l0,0v-3.9h0.8v8c0,0.5,0,1,0.1,1.5h-0.8L162.2,33.5z M160.1,28.4c-1.5,0-2,1.4-2,2.7c0,1.2,0.4,2.9,1.9,2.9    c1.7,0,2.3-1.4,2.3-2.9C162.2,29.7,161.6,28.4,160.1,28.4z"/>
		<path class="st0" d="M165.7,25.9h-0.9v-1h0.9V25.9z M165.7,27.9v6.6h-0.8v-6.6H165.7z"/>
		<path class="st0" d="M171.9,29.9c-0.1-1-0.7-1.5-1.8-1.5c-1.2,0-2,1.3-2,2.8c0,1.5,0.8,2.8,2,2.8c1,0,1.7-0.6,1.8-1.5h0.9    c-0.2,1.5-1.1,2.3-2.6,2.3c-2,0-2.9-1.7-2.9-3.5c0-1.8,1-3.5,3-3.5c1.4,0,2.5,0.8,2.5,2.2H171.9z"/>
		<path class="st0" d="M175,25.9h-0.9v-1h0.9V25.9z M174.9,27.9v6.6h-0.8v-6.6H174.9z"/>
		<path class="st0" d="M177.7,34.5h-0.8v-5.1c0-0.5,0-1-0.1-1.5h0.8l0,1l0,0c0.5-0.8,1.2-1.2,2.1-1.2c2.2,0,2.3,1.9,2.3,2.7v4.1    h-0.8v-4.3c0-1.1-0.7-1.8-1.7-1.8c-1.3,0-1.9,1.1-1.9,2.3V34.5z"/>
		<path class="st0" d="M184.6,31.3c0,1.4,0.7,2.6,2.3,2.6c0.9,0,1.7-0.7,1.9-1.6h0.8c-0.4,1.6-1.4,2.3-3,2.3c-2,0-2.9-1.7-2.9-3.5    c0-1.8,1-3.5,3-3.5c2.2,0,3,1.6,3,3.7H184.6z M188.9,30.6c-0.1-1.3-0.8-2.2-2.2-2.2c-1.3,0-2,1.1-2.1,2.2H188.9z"/>
	</g>
	<polygon class="st0" points="27.9,3.3 32.4,3.3 37.8,14.6 37.8,3.3 40.7,3.3 40.7,17.7 36.4,17.7 30.8,5.7 30.8,17.7 27.9,17.7     "/>
	<g>
		<path class="st0" d="M47.4,16c1.3,0,2.2-0.8,2.2-3.4c0-1.3-0.3-3.2-2.2-3.2c-2.1,0-2.2,2.5-2.2,3.4C45.2,15,45.9,16,47.4,16     M47.3,7.4c3.6,0,5.2,2.5,5.2,5.3c0,2.8-1.6,5.4-5.3,5.4c-2.9,0-5.1-1.8-5.1-5.3C42.1,10.3,43.4,7.4,47.3,7.4"/>
		<path class="st0" d="M54,10.1c0-0.5-0.1-1.9-0.1-2.5h2.8l0.1,1.9c0.4-0.9,1-2.1,3.4-2v2.6c-3-0.3-3.2,1.3-3.2,2.5v5H54V10.1z"/>
		<path class="st0" d="M68.4,17.5c-1,0.3-1.8,0.3-2.3,0.3c-3,0-3-1.9-3-2.7V9.6h-1.9v-2h1.9v-2l2.9-1.1v3h2.4v2h-2.4v4.5    c0,0.9,0,1.5,1.3,1.5c0.4,0,0.6,0,1-0.1V17.5z"/>
		<path class="st0" d="M70.2,3.3h2.9V9c0.3-0.5,1.1-1.5,2.9-1.5c1.5,0,2.4,0.7,2.9,1.4c0.4,0.5,0.7,1.4,0.7,2.7v6.1h-2.9v-6    c0-0.6,0-2.2-1.7-2.2c-0.8,0-1.9,0.5-1.9,2l0,6.1h-3V3.3z"/>
	</g>
	<polygon class="st0" points="83.6,7.6 85.4,15.2 87.5,7.6 90.8,7.6 92.9,15.2 94.9,7.6 97.8,7.6 94.3,17.7 91.1,17.7 89.1,10.2    87,17.7 83.7,17.7 80.4,7.6  "/>
	<g>
		<path class="st0" d="M104.5,11.5c0-0.5,0-2.2-1.8-2.2c-1.3,0-1.8,1.1-1.9,2.2H104.5z M100.8,13.4c0,0.7,0,2.7,2,2.7    c0.7,0,1.5-0.3,1.8-1.4h2.7c0,0.5-0.1,1.3-1,2.2c-0.7,0.8-2,1.2-3.5,1.2c-0.9,0-2.5-0.2-3.5-1.3c-0.9-1-1.3-2.3-1.3-3.9    c0-1.6,0.4-3.6,2.1-4.8c0.8-0.5,1.7-0.8,2.8-0.8c1.4,0,3.1,0.6,4.1,2.4c0.7,1.4,0.6,2.8,0.6,3.7H100.8z"/>
		<path class="st0" d="M111.5,14.8c0,0.6,0.4,1.4,1.7,1.4c1.1,0,1.6-0.6,1.6-1.2c0-0.5-0.2-0.8-1.4-1.1l-1.8-0.5    c-0.8-0.2-2.5-0.7-2.5-2.8c0-2,1.8-3.1,4.4-3.1c2.1,0,3.7,1,3.8,3h-2.7c-0.1-1.1-1-1.2-1.4-1.2c-0.8,0-1.4,0.4-1.4,1    c0,0.7,0.5,0.8,1.4,1.1l1.8,0.5c1.8,0.5,2.7,1.4,2.7,2.8c0,1.7-1.5,3.5-4.6,3.5c-1.3,0-2.5-0.3-3.4-1.2c-0.7-0.7-0.7-1.5-0.7-2    H111.5z"/>
		<path class="st0" d="M125.3,17.5c-1,0.3-1.8,0.3-2.3,0.3c-3,0-3-1.9-3-2.7V9.6h-1.9v-2h1.9v-2l2.9-1.1v3h2.4v2H123v4.5    c0,0.9,0,1.5,1.3,1.5c0.4,0,0.6,0,1-0.1V17.5z"/>
		<path class="st0" d="M132.9,11.5c0-0.5,0-2.2-1.8-2.2c-1.3,0-1.8,1.1-1.9,2.2H132.9z M129.1,13.4c0,0.7,0,2.7,2,2.7    c0.7,0,1.5-0.3,1.8-1.4h2.7c0,0.5-0.1,1.3-1,2.2c-0.7,0.8-2,1.2-3.5,1.2c-0.9,0-2.5-0.2-3.5-1.3c-0.9-1-1.3-2.3-1.3-3.9    c0-1.6,0.4-3.6,2.1-4.8c0.8-0.5,1.7-0.8,2.8-0.8c1.4,0,3.1,0.6,4.1,2.4c0.7,1.4,0.6,2.8,0.6,3.7H129.1z"/>
		<path class="st0" d="M137.6,10.1c0-0.5-0.1-1.9-0.1-2.5h2.8l0.1,1.9c0.4-0.9,1-2.1,3.4-2v2.6c-3-0.3-3.2,1.3-3.2,2.5v5h-2.9V10.1z    "/>
		<path class="st0" d="M145.2,9.4c0,0,0-1.1-0.1-1.8h2.8l0.1,1.5c0.3-0.5,1.1-1.8,3.3-1.8c2,0,2.8,1.2,3.1,1.9    c0.2,0.6,0.3,1.1,0.3,3v5.4h-3v-6.2c0-0.4,0-0.8-0.2-1.1c-0.2-0.4-0.7-0.9-1.4-0.9c-0.6,0-1.2,0.3-1.5,0.8    c-0.2,0.3-0.4,0.8-0.4,1.5v5.9h-3V9.4z"/>
	</g>
	<polygon class="st0" points="2.6,5.4 9.1,17.7 12.8,17.7 5.2,3.3 1,3.3 1,17.7 2.6,17.7  "/>
	<polygon class="st0" points="18,17.7 21.2,17.7 21.2,3.3 18,3.3 14.2,10.1 10.6,3.3 6.9,3.3 13.2,15.2 18,6.5  "/>
	<g>
		<path class="st0" d="M239.4,7.8c-0.8,0-1.4-0.6-1.4-1.4c0-0.8,0.6-1.4,1.4-1.4c0.8,0,1.4,0.6,1.4,1.4    C240.8,7.1,240.1,7.8,239.4,7.8 M239.4,4.7c-0.9,0-1.6,0.7-1.6,1.6c0,0.9,0.7,1.6,1.6,1.6c0.9,0,1.6-0.7,1.6-1.6    C241,5.5,240.3,4.7,239.4,4.7"/>
		<path class="st0" d="M239.4,6.3H239V5.6h0.5c0.2,0,0.3,0.1,0.3,0.3C239.8,6.2,239.6,6.3,239.4,6.3 M240,6.8c0-0.2-0.1-0.4-0.2-0.4    v0c0.2-0.1,0.3-0.3,0.3-0.5c0-0.3-0.2-0.5-0.5-0.5h-0.8v1.9h0.2V6.5h0.5c0.2,0,0.3,0.2,0.3,0.3c0,0.2,0,0.4,0.1,0.5h0.2    C240,7.2,240,7,240,6.8"/>
	</g>
	<polygon class="st0" points="161.3,17.6 161.3,3.2 163.4,3.2 168.8,15.8 174.3,3.2 176.3,3.2 176.3,17.6 175,17.6 175,4.3    174.9,4.3 169.4,17.6 168.1,17.6 162.6,4.4 162.6,4.4 162.6,17.6  "/>
	<g>
		<path class="st0" d="M186,11.8c-0.1-1.9-1.2-3.4-3.2-3.4c-2,0-3,1.6-3.1,3.4H186z M179.6,12.9c0,2.1,1,3.9,3.5,3.9    c1.4,0,2.6-1,2.9-2.4h1.3c-0.6,2.4-2.1,3.5-4.5,3.5c-3,0-4.4-2.6-4.4-5.3c0-2.7,1.5-5.3,4.5-5.3c3.3,0,4.6,2.4,4.6,5.6H179.6z"/>
		<path class="st0" d="M193.3,8.4c-2.3,0-3,2.1-3,4c0,1.9,0.5,4.4,2.8,4.4c2.6,0,3.4-2.2,3.4-4.4C196.5,10.3,195.6,8.4,193.3,8.4     M196.5,16.1L196.5,16.1c-0.9,1.1-2.1,1.8-3.5,1.8c-3,0-4.1-2.8-4.1-5.3c0-2.6,1.1-5.3,4.1-5.3c1.3,0,2.7,0.6,3.4,1.8l0,0V3.2h1.2    v12.1c0,0.8,0.1,1.6,0.1,2.2h-1.2L196.5,16.1z"/>
	</g>
	<path class="st0" d="M201.7,17.6h-1.2v-10h1.2V17.6z M201.8,4.7h-1.4V3.2h1.4V4.7z"/>
	<g>
		<path class="st0" d="M211.1,10.7c-0.1-1.5-1.1-2.3-2.7-2.3c-1.8,0-3,1.9-3,4.2c0,2.3,1.1,4.2,3,4.2c1.6,0,2.6-1,2.7-2.3h1.3    c-0.3,2.3-1.6,3.4-3.9,3.4c-3,0-4.4-2.6-4.4-5.3c0-2.7,1.5-5.3,4.5-5.3c2,0,3.7,1.2,3.8,3.4H211.1z"/>
	</g>
	<path class="st0" d="M215.7,17.6h-1.2v-10h1.2V17.6z M215.8,4.7h-1.4V3.2h1.4V4.7z"/>
	<path class="st0" d="M219.9,17.6h-1.2V9.9c0-0.8-0.1-1.6-0.1-2.2h1.2l0.1,1.5l0,0c0.7-1.2,1.8-1.8,3.1-1.8c3.3,0,3.5,2.9,3.5,4v6.2   h-1.2v-6.4c0-1.7-1-2.7-2.6-2.7c-2,0-2.9,1.7-2.9,3.4V17.6z"/>
	<path class="st0" d="M236.2,11.8c-0.1-1.9-1.2-3.4-3.2-3.4c-2,0-3,1.6-3.1,3.4H236.2z M229.8,12.9c0,2.1,1,3.9,3.5,3.9   c1.4,0,2.6-1,2.9-2.4h1.3c-0.6,2.4-2.1,3.5-4.5,3.5c-3,0-4.4-2.6-4.4-5.3c0-2.7,1.5-5.3,4.5-5.3c3.3,0,4.6,2.4,4.6,5.6H229.8z"/>
</g>
</svg>