<?xml version="1.0" encoding="utf-8"?>
<!-- Generator: Adobe Illustrator 18.1.1, SVG Export Plug-In . SVG Version: 6.00 Build 0)  -->
<svg version="1.1" id="Layer_1" xmlns="http://www.w3.org/2000/svg" xmlns:xlink="http://www.w3.org/1999/xlink" x="0px" y="0px"
	 viewBox="0 0 1346.1 414.3" enable-background="new 0 0 1346.1 414.3" xml:space="preserve">
<g>
	<g>
		<path fill="#F9F9FA" d="M490.8,302.6c0,31.6,18,44.8,38.4,44.8c12.7,0,27.9-5.2,27.9-5.2l2.3,4.3c-5.5,5.4-20.7,17-39.8,17
			c-25.9,0-49.1-19.3-49.1-54.8c0-32.3,22.3-55.7,50-55.7c21.6,0,38.4,12.9,38.4,37.5c0,6.4-1.1,12-1.1,12H490.8z M524.2,294
			c10.9-0.5,14.8-2.5,14.8-13.6c0-9.5-6.8-16.8-21.4-16.8c-15.2,0-26.8,13.4-26.8,31.6L524.2,294z"/>
		<path fill="#F9F9FA" d="M329.7,344.7l4.4,5.5l14.7,5.1l-0.4,5.8h-51.6v-5.9l15-5.7l0-51.6c0-20.9-4.1-28-16.4-28v-5.5l33.2-12h1.8
			c0,0-0.7,15.7-0.7,32L329.7,344.7z"/>
		<path fill="#F9F9FA" d="M403.6,255.8v5.9l-15.2,5l25.2,68.9l26.1-68.4l-15.9-5.5v-5.9h40.4v6.4c-5.9,0-13.2,3-21.1,22.3
			l-28.8,77.8h-10.9l-31.7-83.4c-5-12-10.7-16.6-18-16.6v-6.4H403.6z"/>
		<path fill="#F9F9FA" d="M679.2,359.4c-1.6-0.7-5.7-2.9-5.9-7.7l-1.4-21.6h10c2.7,14.8,12.7,24.3,25.7,24.3
			c13.2,0,18.4-6.8,18.4-15.9c0-8.6-7-13.2-15.7-17.7l-11.6-5.9c-16.6-8.4-24.8-15.2-24.8-31.6c0-20.5,14.8-30.2,37.7-30.2
			c16.1,0,28.6,6.1,28.6,6.1l-3,26.6H728c0-16.6-6.8-22.7-20.7-22.7c-9.3,0-18,3.6-18,12.7c0,7.3,3,10.5,20.9,19.8l10.2,5.2
			c18.6,9.5,23.9,17.5,23.9,33c0,18.6-18.6,29.8-36.8,29.8C696,363.5,685.8,362.2,679.2,359.4z"/>
		<path fill="#F9F9FA" d="M267.6,350.2l-4.3-5.5l0.2-57.5c0-26.6-17.3-34.1-35-34.1c-15,0-36.1,17.5-36.1,17.5
			c0-9.5,0.4-18.2,0.4-18.2h-1.8l-33.2,12v5.5c12.7,0,16.1,11.4,16.1,31.8v47.7l-15,5.7v5.9h52.2l0.4-5.8l-14.7-5.1l-4.3-5.5l0-65.2
			c0,0,8-10.7,22.3-10.7c14.8,0,30,5.2,30,30.5l-0.7,50.4l-14.5,5.5v5.9h52.2l0.4-5.8L267.6,350.2z"/>
		<path fill="#F9F9FA" d="M655,254.5L655,254.5L655,254.5c-0.1,0-4-1.4-11.4-1.4c-15.9,0-32.5,25-32.5,25c0-13.9,0.5-25.7,0.5-25.7
			h-1.8l-32.5,12v5.5c12.3,0,16.1,11.1,16.1,30v49.5l-15,5.7v5.9h52.2l0-5.8l-14.7-5.1l-4.3-5.5v-48.6c0-15,11.8-23.4,24.5-23.4
			c2.6,0,5.3,0.6,7.6,1.4l3.6,5.3l4.4,0.4L655,254.5L655,254.5L655,254.5z"/>
		<path fill="#F9F9FA" d="M799.3,344.7l4.3,5.5l14.7,5.1l-0.4,5.8h-51.6v-5.9l15-5.7l0-51.6c0-20.9-4.1-28-16.4-28v-5.5l33.2-12h1.8
			c0,0-0.7,15.7-0.7,32L799.3,344.7z"/>
		<path fill="#F9F9FA" d="M132.1,310.5c0,39.3-28,52.3-54.8,52.3c-40.3,0-56.8-18.9-56.8-53.9v-66.2c0-19.3-5.2-23.6-20.5-24.3v-7.5
			h62.1v6.8l-21.1,6.6v74.6c0,45,18.2,51.6,38.9,51.6c21.6,0,38-10,38-46.6v-27.6v-52l-20.5-6.2v-7.2h54.6v8.1l-15.5,2.5l-4.3,5.4
			v29.2L132.1,310.5z"/>
		<path fill="#F9F9FA" d="M859,256.7v-27l-13.2,2.3l-5.7,25.7l-18.6,1.8v8.9c10.2,0,18.6,0.9,18.6,10.7c0,9.8-0.9,40.5-0.9,52.7
			c0,23.2,8.9,31.8,23.6,31.8c12.7,0,23.2-5.2,32.7-12.9l-2.5-5.2c0,0-6.4,4.1-15.9,4.1c-10.2,0-19.5-5.7-19.3-19.8l0.9-59.5h51
			c1.6,2.3,3.1,5.1,4.6,8.6l30.4,82.3c-5.4,17.4-18.2,30.7-31.4,31.6c-11.4,0.8-17.5-0.7-17.5-0.7l2.7,22.3
			c27.3,1.6,45.1-18.9,59.9-57.5l26.5-72.3c7.3-19.3,15.7-22.3,21.6-22.3v-6.4h-42.3v5.9l15.9,5.5l-23.9,68.4l-26.1-68.9l15.2-5v-5
			L859,256.7z"/>
		<path fill="#F9F9FA" d="M320.3,235c-2.6,0-14.2-12.8-14.2-15.3c0-2.4,11.4-15.5,14.2-15.5c3,0,14.2,13.1,14.2,15.5
			C334.5,222,322.9,235,320.3,235z"/>
		<path fill="#F9F9FA" d="M789.9,235c-2.6,0-14.2-12.8-14.2-15.3c0-2.4,11.4-15.5,14.2-15.5c3,0,14.2,13.1,14.2,15.5
			C804.1,222,792.5,235,789.9,235z"/>
	</g>
	<g>
		<polygon fill="#F9F9FA" points="5.2,11.2 5.2,17.2 20.2,34 20.2,149.5 0,155.2 0,161.9 54.8,161.9 54.8,155.1 37.5,150.5 
			33.1,145.1 33.1,48.8 129.1,163.1 137.6,163.1 137.6,25.7 157.9,19.6 157.9,12.4 102.3,12.4 102.3,20.5 120,24.9 124.3,30.3 
			124.3,121.6 124.2,121.5 123.1,121.5 29.9,11.2 		"/>
		<path fill="#F9F9FA" d="M213.8,164.4c-27.1,0-53.1-17.4-53.1-54.4c0-36.8,27.5-55.3,53.1-55.3c26.6,0,53.5,16.7,53.5,53.5
			C267.3,143.6,238.9,164.4,213.8,164.4z M246.3,111.3c0-25.3-13.8-46.8-35.5-46.8c-19.4,0-29.1,16.9-29.1,42.2
			c0,25.3,12.2,47.4,35,47.4C236.2,154.3,246.3,136.6,246.3,111.3z"/>
		<path fill="#F9F9FA" d="M548.9,100.5c0-25.3-14.2-30.3-30.7-30.3c-14,0-23,10.4-23,10.4l0,16.7v48.3l4.3,5.4l14.6,5.1l0,5.7h-52.6
			v-5.9l14.9-5.6l0-108.9c0-19.7-5-25.1-15.8-25.1v-5.2L494.1,0h2.3c0,0-1.1,23.3-1.1,40.7v31.4c0,0,21.7-17.4,36.6-17.4
			c18.5,0,35.7,7.7,35.7,35l0,56l4.3,5.4l14.6,5.1l0,5.7h-52.6v-5.9l14.5-5.5L548.9,100.5z"/>
		<path fill="#F9F9FA" d="M768.3,103.9c0,31.4,17.8,44.5,38.2,44.5c12.6,0,27.8-5.2,27.8-5.2l2.3,4.3c-5.4,5.4-20.5,16.9-39.5,16.9
			c-25.7,0-48.8-19.2-48.8-54.4c0-32.1,22.1-55.3,49.7-55.3c21.5,0,38.2,12.9,38.2,37.3c0,6.3-1.1,12-1.1,12H768.3z M801.5,95.3
			c10.8-0.5,14.7-2.5,14.7-13.6c0-9.5-6.8-16.7-21.2-16.7c-15.1,0-26.6,13.3-26.6,31.4L801.5,95.3z"/>
		<path fill="#F9F9FA" d="M863.8,160.3c-1.6-0.7-5.6-2.9-5.9-7.7l-1.4-21.5h9.9c2.7,14.7,12.6,24.2,25.5,24.2
			c13.1,0,18.3-6.8,18.3-15.8c0-8.6-7-13.1-15.6-17.6l-11.5-5.9c-16.5-8.3-24.6-15.1-24.6-31.4c0-20.3,14.7-30,37.5-30
			c16,0,28.5,6.1,28.5,6.1l-2.9,26.4h-9.3c0-16.5-6.8-22.6-20.6-22.6c-9.3,0-17.8,3.6-17.8,12.6c0,7.2,2.9,10.4,20.8,19.7l10.2,5.2
			c18.5,9.5,23.7,17.4,23.7,32.7c0,18.5-18.5,29.6-36.6,29.6C880.6,164.4,870.4,163.1,863.8,160.3z"/>
		<path fill="#F9F9FA" d="M1047.4,103.9c0,31.4,17.8,44.5,38.2,44.5c12.6,0,27.8-5.2,27.8-5.2l2.3,4.3c-5.4,5.4-20.5,16.9-39.5,16.9
			c-25.7,0-48.8-19.2-48.8-54.4c0-32.1,22.1-55.3,49.7-55.3c21.5,0,38.2,12.9,38.2,37.3c0,6.3-1.1,12-1.1,12H1047.4z M1080.6,95.3
			c10.8-0.5,14.7-2.5,14.7-13.6c0-9.5-6.8-16.7-21.2-16.7c-15.1,0-26.6,13.3-26.6,31.4L1080.6,95.3z"/>
		<path fill="#F9F9FA" d="M1331.5,151.1l-4.3-5.4l0.2-57.2c0-26.4-17.2-33.9-34.8-33.9c-14.9,0-35.9,17.4-35.9,17.4
			c0-9.5,0.5-18.1,0.5-18.1h-1.8l-33,12v5.4c12.6,0,16,11.3,16,31.6l0,47.4l-14.9,5.6v5.9h51.9l0.4-5.7l-14.6-5.1l-4.3-5.4l0-64.8
			c0,0,7.9-10.6,22.1-10.6c14.7,0,29.8,5.2,29.8,30.3l-0.7,50.1l-14.4,5.4v5.9h51.9l0.4-5.7L1331.5,151.1z"/>
		<path fill="#F9F9FA" d="M686.6,163.1L662.4,96l-27.7,67.1h-9.5l-27.2-82.9c-3.8-10.4-6-16.5-13.3-16.5v-6.3h44.6v6.4l-13.6,4.5
			l20.3,68.7L653.9,94l4.1-10.9l-6.1-17.5l-7.7-1.9v-6.3h43.1v6.8l-13.6,4.1l22.9,68.7l23.8-68.2L705,63.2v-5.9h40.4v6.3
			c-9.3,1.1-13.8,3.6-21,22.1l-27.2,77.2H686.6z"/>
		<path fill="#F9F9FA" d="M446,146.4c0,0-6.3,4.1-15.8,4.1c-10.2,0-19.4-5.6-19.2-19.7l0.9-59.2h33.4v0h0.3l0.5-3.7h0l2.3-18.6
			l-4.3-0.8l-3.2,7.1l-1.8,1.6l-26.6,1v0l-0.3,0V31.4l-13.1,2.3l-5.6,25.5L374.9,61v8.8c10.2,0,18.5,0.9,18.5,10.6
			c0,9.7-0.9,40.2-0.9,52.4c0,23,8.8,31.6,23.5,31.6c12.6,0,23-5.2,32.5-12.9L446,146.4z"/>
		<path fill="#F9F9FA" d="M1014,146.4c0,0-6.3,4.1-15.8,4.1c-10.2,0-19.4-5.6-19.2-19.7l0.9-59.2h33.4l0,0h0.1l0.5-3.7h0l2.3-18.6
			l-4.3-0.8l-3.2,7.1l-1.8,1.6l-26.6,1v0h0V31.4L967,33.6l-5.6,25.5L942.8,61v8.8c10.2,0,18.5,0.9,18.5,10.6
			c0,9.7-0.9,40.2-0.9,52.4c0,23,8.8,31.6,23.5,31.6c12.6,0,23-5.2,32.5-12.9L1014,146.4z"/>
		<path fill="#F9F9FA" d="M359,56L359,56L359,56c-0.1,0-3.9-1.4-11.3-1.4c-15.8,0-32.3,24.8-32.3,24.8c0-13.8,0.5-25.5,0.5-25.5H314
			l-32.3,12v5.4c12.2,0,16,11.1,16,29.8v49.2l-14.9,5.6v5.9h51.9l0-5.7l-14.6-5.1l-4.3-5.4V97.3c0-14.9,11.7-23.3,24.4-23.3
			c2.6,0,5.2,0.6,7.5,1.4l3.5,5.2l4.3,0.4L359,56L359,56L359,56z"/>
		<path fill="#F9F9FA" d="M1209,56L1209,56L1209,56c-0.1,0-3.9-1.4-11.3-1.4c-15.8,0-32.3,24.8-32.3,24.8c0-13.8,0.5-25.5,0.5-25.5
			h-1.8l-32.3,12v5.4c12.2,0,16,11.1,16,29.8v49.2l-14.9,5.6v5.9h51.9l0-5.7l-14.6-5.1l-4.3-5.4V97.3c0-14.9,11.7-23.3,24.4-23.3
			c2.6,0,5.2,0.6,7.5,1.4l3.5,5.2l4.4,0.4L1209,56L1209,56L1209,56z"/>
	</g>
</g>
</svg>
